:SAMPLES-PER-SECOND 30
:FULLY-SPECIFIED
:DEGREES
214
root  42.5666 37.8361 27.5204 139.269 87.0721 107.948
RightUpLeg  -62.718 -20.1845 19.1781
RightLeg  27.4777 -0.0277146 -0.251907
RightFoot  1.1086 1.49185 -13.5321
RightToes  0.00048216 0.542163 -0.142577
Spine  65.418 -4.38758 7.56672
Spine1  8.53351 2.05031 -5.90039
HEad  -25.482 1.19586 -17.4523
LeftShoulder1  7.48321 -29.5723 -15.6022
LeftArm  -56.1918 -70.4005 7.42026
LeftForeArm  20.9457 1.43884 -1.41362
LeftHand  -0.25398 0.0180481 5.50724
RightShoulder  3.12926 12.9061 11.9877
RightArm  -67.4301 64.888 -28.0748
RightForeArm  2.42118 -3.37741 2.96974
RightHand  -2.19656 4.83523 -24.8955
LeftUpLeg  -59.5558 11.9323 -16.2419
LeftLeg  25.808 1.8256 1.30259
LeftFoot  4.95075 -1.18236 8.02943
LeftToes  1.06248e-005 4.65855e-005 -8.185e-006
215
root  42.1459 38.1432 27.5093 144.795 86.5994 115.591
RightUpLeg  -60.1119 -22.51 19.6693
RightLeg  24.4204 1.63234 0.54068
RightFoot  2.90734 1.72945 -13.6017
RightToes  0.00048216 0.542163 -0.142577
Spine  63.9341 -4.69322 7.56677
Spine1  9.4113 1.6368 -6.10647
HEad  -24.4926 4.17884 -19.622
LeftShoulder1  8.24696 -29.0728 -18.5101
LeftArm  -42.2533 -67.1311 -7.23336
LeftForeArm  20.6641 1.84219 -2.09063
LeftHand  -0.25398 0.0180481 5.50724
RightShoulder  3.394 13.2407 13.3106
RightArm  -57.9599 65.1672 -18.0469
RightForeArm  4.16375 -2.27835 3.72482
RightHand  -2.92988 7.45447 -26.4775
LeftUpLeg  -56.8451 13.0804 -16.708
LeftLeg  23.0768 0.081619 0.38537
LeftFoot  7.83228 -1.13641 6.49305
LeftToes  1.06248e-005 4.65855e-005 -8.185e-006
216
root  41.736 38.4384 27.4868 150.031 85.8728 123.067
RightUpLeg  -57.1846 -24.8926 19.4881
RightLeg  21.3417 2.76968 1.21258
RightFoot  4.5794 1.9065 -13.3352
RightToes  0.00048216 0.542163 -0.142577
Spine  62.513 -4.97982 7.71232
Spine1  10.0204 1.17508 -6.18959
HEad  -23.3681 6.55653 -21.3081
LeftShoulder1  9.02461 -28.3993 -21.6871
LeftArm  -31.7425 -61.822 -18.4319
LeftForeArm  20.6575 2.14301 -2.68261
LeftHand  -0.25398 0.0180481 5.50724
RightShoulder  3.76836 13.5319 15.3418
RightArm  -46.659 63.9628 -7.04599
RightForeArm  2.68601 -1.15077 4.94403
RightHand  -2.86711 7.44528 -25.8923
LeftUpLeg  -53.7037 14.2209 -16.6504
LeftLeg  20.5122 -3.23457 -1.01143
LeftFoot  9.60468 -0.29048 1.22938
LeftToes  1.06248e-005 4.65855e-005 -8.185e-006
217
root  41.3297 38.6783 27.4262 152.494 85.0603 127.899
RightUpLeg  -52.8416 -25.3515 15.8331
RightLeg  18.4864 0.531299 2.33283
RightFoot  5.99983 2.00907 -12.8393
RightToes  0.00048216 0.542163 -0.142577
Spine  61.2125 -5.02101 7.90081
Spine1  10.3764 0.92005 -6.00875
HEad  -21.9039 8.7029 -22.8784
LeftShoulder1  9.91541 -27.7838 -25.2706
LeftArm  -24.6423 -54.7639 -25.8003
LeftForeArm  20.7075 2.04015 -3.30324
LeftHand  -0.25398 0.0180481 5.50724
RightShoulder  4.21314 13.6802 17.9499
RightArm  -35.2725 61.0377 2.77413
RightForeArm  1.06621 -0.351378 6.34407
RightHand  -2.1382 5.05307 -23.7718
LeftUpLeg  -50.2362 13.9909 -14.9496
LeftLeg  19.7189 -5.9376 -2.04627
LeftFoot  8.51444 0.887658 -5.45016
LeftToes  1.06248e-005 4.65855e-005 -8.185e-006
218
root  40.9093 38.8858 27.3064 152.896 84.2523 130.775
RightUpLeg  -47.0135 -22.8303 8.67914
RightLeg  15.4739 -5.62047 3.89804
RightFoot  7.43893 2.05214 -12.0463
RightToes  0.00048216 0.542163 -0.142577
Spine  59.9245 -4.91679 7.98624
Spine1  10.7723 0.895041 -5.75365
HEad  -20.2487 10.9103 -24.3517
LeftShoulder1  10.7879 -27.164 -28.8779
LeftArm  -20.1504 -46.6124 -29.7299
LeftForeArm  20.6031 1.47522 -3.97198
LeftHand  -0.25398 0.0180481 5.50724
RightShoulder  4.6731 13.7311 20.7418
RightArm  -25.7001 56.6796 10.0987
RightForeArm  0.913147 0.226057 7.58562
RightHand  -1.55723 3.05318 -21.5136
LeftUpLeg  -46.682 11.8475 -11.8753
LeftLeg  21.4013 -5.2173 -1.90828
LeftFoot  4.56869 1.14803 -8.30476
LeftToes  1.06248e-005 4.65855e-005 -8.185e-006
219
root  40.4758 39.0668 27.1241 152.248 83.4483 132.704
RightUpLeg  -41.797 -19.9323 2.60779
RightLeg  12.5015 -11.2767 5.22227
RightFoot  9.011 2.07773 -11.1841
RightToes  0.00048216 0.542163 -0.142577
Spine  58.6846 -4.8473 7.9551
Spine1  11.3909 0.914962 -5.5747
HEad  -18.5277 12.9291 -25.8189
LeftShoulder1  11.4658 -26.377 -32.1293
LeftArm  -17.0932 -38.2241 -31.0862
LeftForeArm  20.5851 0.673218 -4.69943
LeftHand  -0.25398 0.0180481 5.50724
RightShoulder  5.09353 13.7496 23.2997
RightArm  -18.3264 51.3822 15.1742
RightForeArm  1.29584 1.0905 8.59158
RightHand  -1.41681 2.77166 -20.2485
LeftUpLeg  -43.0581 9.16726 -8.98749
LeftLeg  24.6007 -1.12375 -0.209879
LeftFoot  -0.326389 0.614842 -6.25931
LeftToes  1.06248e-005 4.65855e-005 -8.185e-006
